<?xml version="1.0" encoding="utf-8"?>
<!-- Generator: Adobe Illustrator 24.0.0, SVG Export Plug-In . SVG Version: 6.00 Build 0)  -->
<svg version="1.1" id="Layer_1" xmlns="http://www.w3.org/2000/svg" xmlns:xlink="http://www.w3.org/1999/xlink" x="0px" y="0px"
	 viewBox="0 0 1000 1000" style="enable-background:new 0 0 1000 1000;" xml:space="preserve">
<style type="text/css">
	.st0{fill:#EDD2F3;}
	.st1{fill:#FFF6BD;}
	.st2{fill:#E86E85;}
	.st3{fill:#12132F;}
	.st4{fill:#C6689D;}
	.st5{fill:none;}
	.st6{fill:url(#SVGID_1_);}
	.st7{fill:url(#SVGID_2_);}
	.st8{fill:url(#SVGID_3_);}
	.st9{opacity:0.5;}
	.st10{fill:url(#SVGID_4_);}
	.st11{fill:url(#SVGID_5_);}
	.st12{fill:url(#SVGID_6_);}
	.st13{fill:url(#SVGID_7_);}
	.st14{fill:url(#SVGID_8_);}
	.st15{fill:url(#SVGID_9_);}
	.st16{fill:url(#SVGID_10_);}
	.st17{fill:url(#SVGID_11_);}
	.st18{fill:#C63168;}
	.st19{fill:url(#SVGID_12_);}
	.st20{fill:url(#SVGID_13_);}
	.st21{fill:url(#SVGID_14_);}
	.st22{fill:#DF722F;}
	.st23{fill:#D49C3D;}
	.st24{fill:#4683E0;}
	.st25{fill:url(#SVGID_15_);}
	.st26{fill:url(#SVGID_16_);}
	.st27{fill:url(#SVGID_17_);}
	.st28{fill:url(#SVGID_18_);}
	.st29{fill:url(#SVGID_19_);}
	.st30{opacity:0.5;fill:#FFFFFF;}
	.st31{fill:#3B3486;}
	.st32{fill:#7743DB;}
	.st33{fill:#00235B;}
	.st34{fill:#54B435;}
	.st35{fill:url(#SVGID_20_);}
	.st36{fill:url(#SVGID_21_);}
	.st37{fill:url(#SVGID_22_);}
	.st38{fill:url(#SVGID_23_);}
	.st39{fill:url(#SVGID_24_);}
	.st40{fill:url(#SVGID_25_);}
</style>
<rect class="st2" width="1000" height="1000"/>
<g>
	<path class="st4" d="M365.37,354.1c0.57,0.39,1.15,0.78,1.72,1.18c-0.57-0.46-1.17-0.91-1.75-1.36l0.08,0.2L365.37,354.1z"/>
	<g>
		<path class="st5" d="M555.19,448.49c0-2.76-0.33-5.43-0.94-8.01c-3.61-15.24-17.3-26.58-33.65-26.58h-45.98h-28.15h-0.2v62.88
			v6.29h4.11h70.21c0.6,0,1.19-0.03,1.78-0.04C540.66,482.1,555.19,466.99,555.19,448.49z"/>
		<linearGradient id="SVGID_1_" gradientUnits="userSpaceOnUse" x1="365.3307" y1="500" x2="634.6693" y2="500">
			<stop  offset="0" style="stop-color:#00235B"/>
			<stop  offset="1" style="stop-color:#E21818"/>
		</linearGradient>
		<path class="st6" d="M586.31,355.27c-0.57-0.4-1.14-0.79-1.72-1.18l0.04,0.02l-0.08-0.2c-15.66-12.04-35.19-19.28-56.43-19.48
			c-0.3,0-0.6-0.02-0.9-0.02h-0.74h-5.15h-0.74H365.33v79.48v69.17v31.41v8.32v39.74v39.74v8.32v31.41v14.72v8.83h0.5h0.37h2.68
			h27.87h49.53v-23.59v-1.96v-42.12v-20.61v-14.72v-0.04c12.23,0,24.46,0,36.68,0c7.77,0,15.54,0,23.3,0c0.61,0,1.22,0,1.83,0
			c5.38,0.01,10.79,0.06,16.19-0.14c4.78-0.18,9.55-0.54,14.27-1.33c18.09-3.01,35.39-10.14,50.11-21.1
			c3.67-2.73,7.17-5.68,10.48-8.83c2.78-2.64,5.43-5.43,7.94-8.34c17.18-19.96,27.59-45.92,27.59-74.33
			C634.67,409.96,615.55,375.93,586.31,355.27z M446.28,476.78V413.9h0.2h28.15h45.98c16.34,0,30.03,11.34,33.65,26.58
			c0.61,2.57,0.94,5.25,0.94,8.01c0,18.5-14.53,33.62-32.81,34.54c-0.59,0.01-1.18,0.04-1.78,0.04h-70.21h-4.11V476.78z"/>
		<linearGradient id="SVGID_2_" gradientUnits="userSpaceOnUse" x1="380.042" y1="614.7341" x2="634.8192" y2="409.5596">
			<stop  offset="0" style="stop-color:#FFDD83"/>
			<stop  offset="1" style="stop-color:#98AED6"/>
		</linearGradient>
		<path class="st7" d="M586.31,355.27c21.41,17.27,35.12,43.7,35.12,73.34c0,52.02-42.17,94.19-94.19,94.19h-2.94h-10.66h0h-1.66
			c-2.58,0-7.94,0-14.53,0c-19.93,0-51.16,0.01-51.16,0.04c-0.49-0.01-0.98-0.04-1.47-0.04c-3.43,0-6.8,0.24-10.11,0.66
			c-25.12,3.19-46.56,18.1-58.71,39.08c-3.56,6.15-6.34,12.82-8.15,19.87v0c-1.63,6.35-2.5,13.01-2.5,19.87v8.32v31.41
			c0-6.86,0.87-13.52,2.5-19.87c0.54-2.12,1.19-4.19,1.9-6.23c1.66-4.77,3.76-9.33,6.26-13.64c13.74-23.75,39.41-39.74,68.82-39.74
			h1.47c12.23,0,24.46,0,36.68,0c7.77,0,15.54,0,23.3,0c0.61,0,1.22,0,1.83,0c5.38,0.01,10.79,0.06,16.19-0.14
			c4.78-0.18,9.55-0.54,14.27-1.33c18.09-3.01,35.39-10.14,50.11-21.1c3.67-2.73,7.17-5.68,10.48-8.83
			c2.78-2.64,5.43-5.43,7.94-8.34c17.18-19.96,27.59-45.92,27.59-74.33C634.67,409.96,615.55,375.93,586.31,355.27z"/>
		<linearGradient id="SVGID_3_" gradientUnits="userSpaceOnUse" x1="-193.7073" y1="1223.1497" x2="712.634" y2="252.4529">
			<stop  offset="0" style="stop-color:#FF8B83"/>
			<stop  offset="1" style="stop-color:#98DFD6"/>
		</linearGradient>
		<path class="st8" d="M586.31,355.27c-0.57-0.4-1.14-0.79-1.72-1.18l0.04,0.02l-0.08-0.2c-15.66-12.04-35.19-19.28-56.43-19.48
			c6.68,0.9,11.87,1.68,12.63,1.79c8.16,2.12,15.61,6.01,21.91,11.24c19.48,13.4,32.26,35.84,32.26,61.27
			c0,40.45-32.32,73.33-72.55,74.28c-0.59,0.01-1.18,0.04-1.78,0.04h-70.21h-4.11h-1.47c-1.37,0-2.72,0.03-4.07,0.1
			c-0.78,0.04-1.55,0.11-2.33,0.18c-0.56,0.04-1.13,0.07-1.69,0.13c0,0-0.01,0-0.01,0c-1.05,0.11-2.09,0.25-3.13,0.4
			c-0.27,0.04-0.54,0.06-0.81,0.1c-1.19,0.18-2.37,0.4-3.54,0.63c-0.11,0.02-0.23,0.04-0.34,0.06c-1.28,0.26-2.55,0.55-3.81,0.87
			c0,0,0,0,0,0c-3.79,0.97-7.46,2.21-11.01,3.7c-0.49,0.21-0.98,0.43-1.47,0.65c-0.6,0.27-1.2,0.53-1.79,0.81
			c-0.53,0.25-1.05,0.51-1.57,0.77c-0.54,0.27-1.08,0.55-1.62,0.83c-0.52,0.28-1.04,0.56-1.55,0.85c-0.52,0.29-1.04,0.59-1.55,0.89
			c-0.51,0.3-1.02,0.6-1.52,0.91c-0.52,0.32-1.02,0.65-1.53,0.98c-0.48,0.31-0.97,0.62-1.44,0.95c-0.57,0.39-1.13,0.8-1.69,1.2
			c-0.7,0.51-1.4,1.03-2.08,1.56c-0.57,0.44-1.14,0.88-1.7,1.34c-0.44,0.36-0.87,0.73-1.3,1.1c-0.46,0.4-0.93,0.79-1.38,1.2
			c-0.44,0.39-0.86,0.79-1.29,1.19c-0.43,0.41-0.87,0.82-1.29,1.23c-0.42,0.41-0.83,0.82-1.24,1.24c-0.42,0.43-0.83,0.87-1.25,1.31
			c-0.39,0.42-0.79,0.84-1.17,1.26c-0.43,0.48-0.85,0.98-1.28,1.47c-0.34,0.4-0.69,0.79-1.02,1.2c-0.7,0.86-1.39,1.73-2.06,2.62
			c-0.31,0.41-0.61,0.84-0.91,1.26c-0.39,0.54-0.78,1.07-1.15,1.62c-0.31,0.46-0.62,0.92-0.92,1.39c-0.35,0.53-0.69,1.06-1.02,1.59
			c-0.3,0.48-0.59,0.96-0.87,1.44c-0.39,0.65-0.77,1.31-1.14,1.98c-0.15,0.27-0.31,0.54-0.45,0.82c-0.5,0.93-0.98,1.87-1.44,2.81
			c-0.16,0.32-0.31,0.64-0.46,0.96c-0.38,0.8-0.74,1.6-1.09,2.41c-0.1,0.24-0.21,0.48-0.32,0.72c-0.42,1-0.81,2.01-1.19,3.03
			c-0.12,0.31-0.23,0.63-0.34,0.94c-0.32,0.9-0.63,1.8-0.92,2.71c-0.06,0.19-0.13,0.38-0.19,0.58c-0.33,1.07-0.63,2.14-0.92,3.23
			c-0.08,0.3-0.16,0.61-0.23,0.91c-0.25,1-0.49,2.01-0.7,3.03c-0.03,0.13-0.06,0.26-0.09,0.39c-0.23,1.13-0.43,2.27-0.61,3.41
			c-0.05,0.3-0.09,0.6-0.14,0.89c-0.16,1.11-0.31,2.22-0.42,3.34c-0.01,0.07-0.02,0.13-0.02,0.2c-0.12,1.18-0.2,2.37-0.27,3.56
			c-0.02,0.3-0.03,0.59-0.04,0.89c-0.05,1.21-0.09,2.42-0.09,3.63v39.74c0-6.86,0.87-13.52,2.5-19.87v0
			c1.82-7.05,4.59-13.72,8.15-19.87c12.14-20.98,33.59-35.88,58.71-39.08c3.31-0.42,6.68-0.66,10.11-0.66h1.47h51.16h14.53h1.66h0
			h10.66h2.94c52.02,0,94.19-42.17,94.19-94.19C621.42,398.97,607.72,372.54,586.31,355.27z"/>
	</g>
	<g class="st9">
		<linearGradient id="SVGID_4_" gradientUnits="userSpaceOnUse" x1="365.3307" y1="498.651" x2="634.6693" y2="498.651">
			<stop  offset="0" style="stop-color:#000000"/>
			<stop  offset="0.486" style="stop-color:#FFFFFF;stop-opacity:0"/>
			<stop  offset="1" style="stop-color:#000000"/>
		</linearGradient>
		<path class="st10" d="M586.31,355.27c21.41,17.27,35.12,43.7,35.12,73.34c0,52.02-42.17,94.19-94.19,94.19h-2.94h-10.66h0h-1.66
			c-2.58,0-7.94,0-14.53,0c-19.93,0-51.16,0.01-51.16,0.04c-0.49-0.01-0.98-0.04-1.47-0.04c-3.43,0-6.8,0.24-10.11,0.66
			c-25.12,3.19-46.56,18.1-58.71,39.08c-3.56,6.15-6.34,12.82-8.15,19.87v0c-1.63,6.35-2.5,13.01-2.5,19.87v8.32v31.41
			c0-6.86,0.87-13.52,2.5-19.87c0.54-2.12,1.19-4.19,1.9-6.23c1.66-4.77,3.76-9.33,6.26-13.64c13.74-23.75,39.41-39.74,68.82-39.74
			h1.47c12.23,0,24.46,0,36.68,0c7.77,0,15.54,0,23.3,0c0.61,0,1.22,0,1.83,0c5.38,0.01,10.79,0.06,16.19-0.14
			c4.78-0.18,9.55-0.54,14.27-1.33c18.09-3.01,35.39-10.14,50.11-21.1c3.67-2.73,7.17-5.68,10.48-8.83
			c2.78-2.64,5.43-5.43,7.94-8.34c17.18-19.96,27.59-45.92,27.59-74.33C634.67,409.96,615.55,375.93,586.31,355.27z"/>
		<linearGradient id="SVGID_5_" gradientUnits="userSpaceOnUse" x1="282.2412" y1="432.7179" x2="461.9858" y2="414.8456">
			<stop  offset="0" style="stop-color:#000000"/>
			<stop  offset="1" style="stop-color:#FFFFFF;stop-opacity:0"/>
		</linearGradient>
		<path class="st11" d="M527.23,334.86c-1.12-0.17-2.25-0.28-3.39-0.35c-0.21,0.01-0.42,0.01-0.62,0.02
			c0.12-0.01,0.23-0.02,0.35-0.03c-0.86-0.03-1.72-0.06-2.59-0.07c-0.12,0-0.24-0.01-0.37-0.01H365.33v79.48v69.17v31.41
			c11.4-14.99,28-25.81,47.12-29.77c5.22-1.08,10.63-1.65,16.17-1.65h16.19h1.47v-6.29V413.9h0.2h28.15h45.98h0.74
			c2,0,3.97-0.15,5.89-0.44c19.15-2.85,33.85-19.36,33.85-39.3S546.38,337.71,527.23,334.86z"/>
		<linearGradient id="SVGID_6_" gradientUnits="userSpaceOnUse" x1="368.2682" y1="618.1237" x2="624.1728" y2="347.5638">
			<stop  offset="0" style="stop-color:#000000"/>
			<stop  offset="0.486" style="stop-color:#FFFFFF;stop-opacity:0"/>
			<stop  offset="1" style="stop-color:#000000"/>
		</linearGradient>
		<path class="st12" d="M586.31,355.27c-16.16-13.03-36.7-20.85-59.08-20.85v0.02c4.66,0.06,9.18,0.67,13.51,1.79
			c8.17,2.12,15.63,6.01,21.94,11.25c19.48,13.4,32.26,35.84,32.26,61.27c0,40.45-32.32,73.33-72.55,74.28
			c-0.59,0.01-1.18,0.04-1.78,0.04h-70.21h-4.11h-1.47c-1.37,0-2.72,0.03-4.07,0.1c-0.78,0.04-1.55,0.11-2.33,0.18
			c-0.56,0.04-1.13,0.07-1.69,0.13c0,0-0.01,0-0.01,0c-1.05,0.11-2.09,0.25-3.13,0.4c-0.27,0.04-0.54,0.06-0.81,0.1
			c-1.19,0.18-2.37,0.4-3.54,0.63c-0.11,0.02-0.23,0.04-0.34,0.06c-1.28,0.26-2.55,0.55-3.81,0.87c0,0,0,0,0,0
			c-3.79,0.97-7.46,2.21-11.01,3.7c-0.49,0.21-0.98,0.43-1.47,0.65c-0.6,0.27-1.2,0.53-1.79,0.81c-0.53,0.25-1.05,0.51-1.57,0.77
			c-0.54,0.27-1.08,0.55-1.62,0.83c-0.52,0.28-1.04,0.56-1.55,0.85c-0.52,0.29-1.04,0.59-1.55,0.89c-0.51,0.3-1.02,0.6-1.52,0.91
			c-0.52,0.32-1.02,0.65-1.53,0.98c-0.48,0.31-0.97,0.62-1.44,0.95c-0.57,0.39-1.13,0.8-1.69,1.2c-0.7,0.51-1.4,1.03-2.08,1.56
			c-0.57,0.44-1.14,0.88-1.7,1.34c-0.44,0.36-0.87,0.73-1.3,1.1c-0.46,0.4-0.93,0.79-1.38,1.2c-0.44,0.39-0.86,0.79-1.29,1.19
			c-0.43,0.41-0.87,0.82-1.29,1.23c-0.42,0.41-0.83,0.82-1.24,1.24c-0.42,0.43-0.83,0.87-1.25,1.31c-0.39,0.42-0.79,0.84-1.17,1.26
			c-0.43,0.48-0.85,0.98-1.28,1.47c-0.34,0.4-0.69,0.79-1.02,1.2c-0.7,0.86-1.39,1.73-2.06,2.62c-0.31,0.41-0.61,0.84-0.91,1.26
			c-0.39,0.54-0.78,1.07-1.15,1.62c-0.31,0.46-0.62,0.92-0.92,1.39c-0.35,0.53-0.69,1.06-1.02,1.59c-0.3,0.48-0.59,0.96-0.87,1.44
			c-0.39,0.65-0.77,1.31-1.14,1.98c-0.15,0.27-0.31,0.54-0.45,0.82c-0.5,0.93-0.98,1.87-1.44,2.81c-0.16,0.32-0.31,0.64-0.46,0.96
			c-0.38,0.8-0.74,1.6-1.09,2.41c-0.1,0.24-0.21,0.48-0.32,0.72c-0.42,1-0.81,2.01-1.19,3.03c-0.12,0.31-0.23,0.63-0.34,0.94
			c-0.32,0.9-0.63,1.8-0.92,2.71c-0.06,0.19-0.13,0.38-0.19,0.58c-0.33,1.07-0.63,2.14-0.92,3.23c-0.08,0.3-0.16,0.61-0.23,0.91
			c-0.25,1-0.49,2.01-0.7,3.03c-0.03,0.13-0.06,0.26-0.09,0.39c-0.23,1.13-0.43,2.27-0.61,3.41c-0.05,0.3-0.09,0.6-0.14,0.89
			c-0.16,1.11-0.31,2.22-0.42,3.34c-0.01,0.07-0.02,0.13-0.02,0.2c-0.12,1.18-0.2,2.37-0.27,3.56c-0.02,0.3-0.03,0.59-0.04,0.89
			c-0.05,1.21-0.09,2.42-0.09,3.63v39.74c0-6.86,0.87-13.52,2.5-19.87v0c1.82-7.05,4.59-13.72,8.15-19.87
			c12.14-20.98,33.59-35.88,58.71-39.08c3.31-0.42,6.68-0.66,10.11-0.66h1.47h51.16h14.53h1.66h0h10.66h2.94
			c52.02,0,94.19-42.17,94.19-94.19C621.42,398.97,607.72,372.54,586.31,355.27z"/>
		<linearGradient id="SVGID_7_" gradientUnits="userSpaceOnUse" x1="520.6052" y1="387.4523" x2="583.1564" y2="387.4523">
			<stop  offset="0" style="stop-color:#000000"/>
			<stop  offset="1" style="stop-color:#FFFFFF;stop-opacity:0"/>
		</linearGradient>
		<path class="st13" d="M562.67,347.48c-6.3-5.24-13.76-9.13-21.94-11.25c-4.32-1.12-8.85-1.73-13.51-1.79v-0.02h-0.74h-5.15h-0.74
			c0.12,0,0.24,0.01,0.37,0.01c0.87,0,1.73,0.03,2.59,0.07c-0.12,0.01-0.23,0.02-0.35,0.03c0.21-0.01,0.42-0.01,0.62-0.02
			c1.14,0.07,2.28,0.19,3.39,0.35c19.15,2.85,33.85,19.36,33.85,39.3s-14.7,36.46-33.85,39.3c-1.92,0.29-3.89,0.44-5.89,0.44h-0.74
			c16.34,0,30.03,11.34,33.65,26.58c17.25-9.71,28.91-28.19,28.91-49.39C583.16,373.55,575.18,357.87,562.67,347.48z"/>
		<linearGradient id="SVGID_8_" gradientUnits="userSpaceOnUse" x1="533.9496" y1="465.4182" x2="586.9342" y2="374.1042">
			<stop  offset="0" style="stop-color:#000000"/>
			<stop  offset="1" style="stop-color:#FFFFFF;stop-opacity:0"/>
		</linearGradient>
		<path class="st14" d="M522.39,483.03c40.22-0.95,72.55-33.83,72.55-74.28c0-25.43-12.78-47.87-32.26-61.27
			c12.51,10.39,20.49,26.07,20.49,43.61c0,21.21-11.66,39.68-28.91,49.39c0.61,2.57,0.94,5.25,0.94,8.01
			C555.19,466.99,540.66,482.1,522.39,483.03z"/>
		<linearGradient id="SVGID_9_" gradientUnits="userSpaceOnUse" x1="371.8414" y1="531.5928" x2="492.466" y2="449.2975">
			<stop  offset="0" style="stop-color:#000000"/>
			<stop  offset="1" style="stop-color:#FFFFFF;stop-opacity:0"/>
		</linearGradient>
		<path class="st15" d="M428.62,483.07c-5.54,0-10.95,0.57-16.17,1.65c-19.12,3.95-35.72,14.77-47.12,29.77v8.32v39.74
			c0-1.22,0.04-2.43,0.09-3.63c0.01-0.3,0.03-0.6,0.04-0.89c0.07-1.19,0.15-2.38,0.27-3.56c0.01-0.07,0.02-0.13,0.02-0.2
			c0.12-1.12,0.26-2.23,0.42-3.34c0.04-0.3,0.09-0.6,0.14-0.89c0.18-1.14,0.38-2.28,0.61-3.41c0.03-0.13,0.06-0.26,0.09-0.39
			c0.21-1.02,0.45-2.03,0.7-3.03c0.08-0.3,0.15-0.61,0.23-0.91c0.29-1.08,0.59-2.16,0.92-3.23c0.06-0.19,0.13-0.39,0.19-0.58
			c0.29-0.91,0.6-1.81,0.92-2.71c0.11-0.31,0.22-0.63,0.34-0.94c0.38-1.02,0.77-2.03,1.19-3.03c0.1-0.24,0.21-0.48,0.32-0.72
			c0.35-0.81,0.71-1.61,1.09-2.41c0.15-0.32,0.3-0.64,0.46-0.96c0.46-0.95,0.94-1.89,1.44-2.81c0.15-0.27,0.3-0.54,0.45-0.82
			c0.23-0.42,0.46-0.85,0.71-1.27c0.14-0.24,0.29-0.47,0.43-0.71c0.29-0.48,0.58-0.96,0.87-1.44c0.33-0.54,0.68-1.07,1.02-1.59
			c0.3-0.47,0.61-0.93,0.92-1.39c0.37-0.55,0.76-1.08,1.15-1.62c0.3-0.42,0.6-0.85,0.91-1.26c0.67-0.89,1.35-1.76,2.06-2.62
			c0.33-0.41,0.68-0.8,1.02-1.2c0.42-0.49,0.84-0.99,1.28-1.47c0.38-0.43,0.78-0.84,1.17-1.26c0.41-0.44,0.82-0.88,1.25-1.31
			c0.41-0.42,0.82-0.83,1.24-1.24c0.43-0.42,0.86-0.83,1.29-1.23c0.43-0.4,0.85-0.8,1.29-1.19c0.45-0.41,0.92-0.8,1.38-1.2
			c0.43-0.37,0.86-0.74,1.3-1.1c0.56-0.46,1.13-0.9,1.7-1.34c0.69-0.53,1.38-1.05,2.08-1.56c0.56-0.4,1.12-0.81,1.69-1.2
			c0.47-0.32,0.96-0.63,1.44-0.95c0.51-0.33,1.02-0.66,1.53-0.98c0.5-0.31,1.01-0.61,1.52-0.91c0.51-0.3,1.03-0.6,1.55-0.89
			c0.52-0.29,1.03-0.57,1.55-0.85c0.54-0.28,1.08-0.56,1.62-0.83c0.52-0.26,1.04-0.52,1.57-0.77c0.59-0.28,1.19-0.54,1.79-0.81
			c0.49-0.22,0.97-0.44,1.47-0.65c3.55-1.49,7.22-2.73,11.01-3.7c0,0,0,0,0,0c1.26-0.32,2.53-0.61,3.81-0.87
			c0.11-0.02,0.23-0.04,0.34-0.06c1.17-0.23,2.35-0.45,3.54-0.63c0.27-0.04,0.54-0.07,0.81-0.1c1.04-0.15,2.08-0.29,3.13-0.4
			c0,0,0.01,0,0.01,0c0.56-0.06,1.13-0.08,1.69-0.13c0.77-0.06,1.54-0.14,2.33-0.18c1.35-0.07,2.71-0.1,4.07-0.1H428.62z"/>
		<linearGradient id="SVGID_10_" gradientUnits="userSpaceOnUse" x1="456.23" y1="572.6171" x2="253.2513" y2="693.6384">
			<stop  offset="0" style="stop-color:#000000"/>
			<stop  offset="1" style="stop-color:#FFFFFF;stop-opacity:0"/>
		</linearGradient>
		<path class="st16" d="M444.81,562.55c-29.41,0-55.07,15.99-68.82,39.74c-2.49,4.31-4.59,8.87-6.26,13.64
			c-0.71,2.04-1.35,4.12-1.9,6.23c-1.63,6.35-2.5,13.01-2.5,19.87v14.72c0-2.48,0.13-4.93,0.35-7.36
			c0.64-6.92,2.14-13.58,4.44-19.87c1.15-3.14,2.5-6.19,4.02-9.13c1.94-3.76,4.17-7.36,6.66-10.74
			c14.47-19.63,37.75-32.38,64.01-32.38c0.49,0,0.98,0.03,1.47,0.04v-14.72C445.79,562.58,445.3,562.55,444.81,562.55z"/>
		<linearGradient id="SVGID_11_" gradientUnits="userSpaceOnUse" x1="464.6035" y1="560.9124" x2="374.9864" y2="634.8272">
			<stop  offset="0.1521" style="stop-color:#000000"/>
			<stop  offset="1" style="stop-color:#FFFFFF;stop-opacity:0"/>
		</linearGradient>
		<path class="st17" d="M444.81,577.27c-26.26,0-49.54,12.74-64.01,32.38c-2.49,3.38-4.72,6.98-6.66,10.74
			c-1.52,2.94-2.87,5.99-4.02,9.13c-2.29,6.29-3.8,12.95-4.44,19.87c-0.22,2.42-0.35,4.88-0.35,7.36v8.83h0.5h0.37
			c0.3-1.99,0.68-3.95,1.12-5.89c1.59-7.02,4.1-13.69,7.42-19.87c2.34-4.36,5.08-8.45,8.16-12.27c2.16-2.68,4.48-5.22,6.96-7.6
			c14.27-13.67,33.62-22.08,54.94-22.08c0.49,0,0.98,0.03,1.47,0.04v-20.61C445.79,577.3,445.3,577.27,444.81,577.27z"/>
		<path class="st5" d="M444.81,597.87c-21.32,0-40.67,8.41-54.94,22.08c-2.48,2.38-4.8,4.92-6.96,7.6
			c-3.08,3.82-5.83,7.92-8.16,12.27c-3.32,6.18-5.82,12.85-7.42,19.87c-0.44,1.94-0.82,3.9-1.12,5.89h2.68h27.87h49.53v-23.59v-1.96
			v-42.12C445.79,597.9,445.3,597.87,444.81,597.87z"/>
	</g>
</g>
</svg>
