<?xml version="1.0" encoding="utf-8"?>
<!-- Generator: Adobe Illustrator 24.0.0, SVG Export Plug-In . SVG Version: 6.00 Build 0)  -->
<svg version="1.1" id="Layer_1" xmlns="http://www.w3.org/2000/svg" xmlns:xlink="http://www.w3.org/1999/xlink" x="0px" y="0px"
	 viewBox="0 0 1000 1000" style="enable-background:new 0 0 1000 1000;" xml:space="preserve">
<style type="text/css">
	.st0{fill:#0F0F0E;}
	.st1{fill:url(#SVGID_1_);}
	.st2{opacity:0.3;}
	.st3{fill:url(#SVGID_2_);}
	.st4{fill:url(#SVGID_3_);}
	.st5{opacity:0.5;fill:url(#SVGID_4_);}
	.st6{opacity:0.3;fill:url(#SVGID_5_);}
	.st7{opacity:0.5;fill:url(#SVGID_6_);}
	.st8{opacity:0.5;fill:url(#SVGID_7_);}
	.st9{opacity:0.5;fill:url(#SVGID_8_);}
	.st10{opacity:0.5;fill:url(#SVGID_9_);}
	.st11{fill:url(#SVGID_10_);}
	.st12{fill:url(#SVGID_11_);}
	.st13{fill:url(#SVGID_12_);}
	.st14{fill:url(#SVGID_13_);}
	.st15{fill:url(#SVGID_14_);}
	.st16{fill:url(#SVGID_15_);}
	.st17{fill:url(#SVGID_16_);}
	.st18{fill:url(#SVGID_17_);}
	.st19{opacity:0.2;}
	.st20{fill:url(#SVGID_18_);}
	.st21{fill:url(#SVGID_19_);}
	.st22{fill:url(#SVGID_20_);}
	.st23{fill:url(#SVGID_21_);}
	.st24{fill:url(#SVGID_22_);}
	.st25{clip-path:url(#SVGID_24_);}
	.st26{fill:#FF6C3B;}
	.st27{fill:#FF6F3F;}
	.st28{fill:#FF7244;}
	.st29{fill:#FF7548;}
	.st30{fill:#FF784C;}
	.st31{fill:#FF7B51;}
	.st32{fill:#FF7E55;}
	.st33{fill:#FF8159;}
	.st34{fill:#FF845E;}
	.st35{fill:#FF8762;}
	.st36{fill:#FF8A66;}
	.st37{fill:#FF8E6B;}
	.st38{fill:#FF916F;}
	.st39{fill:#FF9474;}
	.st40{fill:#FF9778;}
	.st41{fill:#FF9A7C;}
	.st42{fill:#FF9D81;}
	.st43{fill:#FFA085;}
	.st44{fill:#FFA389;}
	.st45{fill:#FFA68E;}
	.st46{fill:#FFA992;}
	.st47{clip-path:url(#SVGID_26_);}
	.st48{fill:#FF7040;}
	.st49{fill:#FF7345;}
	.st50{fill:#FF774A;}
	.st51{fill:#FF7A4F;}
	.st52{fill:#FF825A;}
	.st53{fill:#FF855F;}
	.st54{fill:#FF8964;}
	.st55{fill:#FF8C69;}
	.st56{fill:#FF906E;}
	.st57{fill:#FF9373;}
	.st58{fill:#FF9B7E;}
	.st59{fill:#FF9E83;}
	.st60{fill:#FFA288;}
	.st61{fill:#FFA58D;}
	.st62{clip-path:url(#SVGID_28_);}
	.st63{fill:#FF7243;}
	.st64{fill:#FF7447;}
	.st65{fill:#FF774B;}
	.st66{fill:#FF7D53;}
	.st67{fill:#FF7F57;}
	.st68{fill:#FF825B;}
	.st69{fill:#FF8863;}
	.st70{fill:#FF8B67;}
	.st71{fill:#FF8D6A;}
	.st72{fill:#FF9372;}
	.st73{fill:#FF9676;}
	.st74{fill:#FF987A;}
	.st75{fill:#FF9E82;}
	.st76{fill:#FFA186;}
	.st77{fill:#FFA38A;}
</style>
<rect class="st0" width="1000" height="1000"/>
<g>
	<linearGradient id="SVGID_1_" gradientUnits="userSpaceOnUse" x1="609.0453" y1="629.6635" x2="586.3085" y2="328.0213">
		<stop  offset="0" style="stop-color:#009FE2"/>
		<stop  offset="0.0375" style="stop-color:#0093D8"/>
		<stop  offset="0.115" style="stop-color:#0080C8"/>
		<stop  offset="0.1949" style="stop-color:#0075BF"/>
		<stop  offset="0.28" style="stop-color:#0071BC"/>
		<stop  offset="0.67" style="stop-color:#00A715"/>
		<stop  offset="0.89" style="stop-color:#D8E000"/>
	</linearGradient>
	<path class="st1" d="M695.95,477.69l-41.59-72.04l-0.42,0.25c-7.44-10.9-17.2-20.47-29.12-27.9
		c-23.4-14.58-50.56-18.08-75.37-11.94c-23.89,5.91-45.59,20.76-59.63,43.3c-1.59,2.55-3.75,4.44-5.07,7.06
		c-0.15,0.3-0.93,1.02-1.07,1.33c-1.56,1.95-2.61,3.85-3.98,6c0.77-0.66,2.31-1.4,3.2-1.85c1.63-0.83,3.23-1.78,4.89-2.51
		c13.22-5.85,30.01-1.43,38.16,12.69l49.31,85.42l12.28,21.27c0.32,0.55,0.61,1.11,0.89,1.67c1.83,2.58,3.52,5.31,5.02,8.2
		c1.26,2.43,2.34,4.91,3.28,7.41c0.04,0.06,0.07,0.12,0.11,0.17c1.75,2.69,3.38,5.49,4.88,8.4c11.86,22.9,13.79,48.31,7.38,71.33
		c-7.05,25.3-24.18,47.72-49.35,60.75c-12.75,6.6-26.29,10.13-39.75,10.85v0.56h42.91C681.17,708.14,755.09,580.11,695.95,477.69z"
		/>
	<g class="st2">
		<path d="M596.84,556.24c-0.04-0.06-0.07-0.12-0.11-0.17c0.02,0.06,0.04,0.12,0.07,0.18C596.81,556.25,596.82,556.24,596.84,556.24
			z"/>
	</g>
	<linearGradient id="SVGID_2_" gradientUnits="userSpaceOnUse" x1="283.2337" y1="571.8563" x2="612.71" y2="571.8563">
		<stop  offset="1.331947e-07" style="stop-color:#DA007C"/>
		<stop  offset="0.0433" style="stop-color:#B20082"/>
		<stop  offset="0.0882" style="stop-color:#900088"/>
		<stop  offset="0.1342" style="stop-color:#75008C"/>
		<stop  offset="0.1809" style="stop-color:#62008F"/>
		<stop  offset="0.2289" style="stop-color:#570090"/>
		<stop  offset="0.28" style="stop-color:#530091"/>
		<stop  offset="0.67" style="stop-color:#0071BC"/>
		<stop  offset="0.89" style="stop-color:#000492"/>
	</linearGradient>
	<path class="st3" d="M593.45,548.65c-1.5-2.89-3.19-5.62-5.02-8.2c1.28,2.56,2.16,5.19,2.65,7.83c0.58,3.08,0.64,6.17,0.26,9.18
		c-1.81,14.11-13.67,26.25-29.74,26.25h-96.43H438.4c-3.46,0-6.73-0.57-9.74-1.6c-0.66-0.22-1.31-0.47-1.94-0.74
		c-0.93,0.12-1.87,0.23-2.81,0.32c-1.06,0.11-2.13,0.19-3.2,0.26c-2.22,0.15-4.45,0.23-6.71,0.23c-27.68,0-52.68-11.48-70.5-29.94
		c-17.02-17.63-27.5-41.62-27.5-68.06c0-17.6,4.64-34.11,12.76-48.38l-0.4-0.23l-24.32,42.12
		c-59.13,102.42,14.78,230.44,133.05,230.44H520v-0.56c13.47-0.72,27-4.25,39.75-10.85c25.17-13.03,42.3-35.45,49.35-60.75
		c6.41-23.02,4.48-48.43-7.38-71.33L593.45,548.65z"/>
	<linearGradient id="SVGID_3_" gradientUnits="userSpaceOnUse" x1="598.0239" y1="295.9582" x2="357.6641" y2="536.318">
		<stop  offset="0" style="stop-color:#FFE700"/>
		<stop  offset="0.0178" style="stop-color:#FAE600"/>
		<stop  offset="0.1016" style="stop-color:#E7E300"/>
		<stop  offset="0.188" style="stop-color:#DCE100"/>
		<stop  offset="0.28" style="stop-color:#D8E000"/>
		<stop  offset="0.67" style="stop-color:#F13F00"/>
		<stop  offset="0.89" style="stop-color:#FF0047"/>
	</linearGradient>
	<path class="st4" d="M489.82,409.31c14.04-22.54,35.74-37.39,59.63-43.3c24.8-6.14,51.97-2.63,75.37,11.94
		c11.92,7.43,21.68,17,29.12,27.9l0.42-0.25l-21.32-36.92c-59.13-102.42-206.96-102.42-266.09,0l-38.59,66.85l0.4,0.23
		c-8.12,14.27-12.76,30.79-12.76,48.38c0,26.44,10.48,50.43,27.5,68.06c17.82,18.46,42.82,29.94,70.5,29.94
		c2.25,0,4.49-0.08,6.71-0.23c1.07-0.07,2.14-0.16,3.2-0.26c0.94-0.09,1.88-0.2,2.81-0.32c-1.76-0.74-3.43-1.65-4.98-2.69
		c-12.34-8.3-17.64-25.41-9.27-39.9l49.45-85.66l12.14-21.03L489.82,409.31z"/>
	<linearGradient id="SVGID_4_" gradientUnits="userSpaceOnUse" x1="598.0239" y1="295.9582" x2="357.6641" y2="536.318">
		<stop  offset="5.327789e-07" style="stop-color:#FFFFFF;stop-opacity:0"/>
		<stop  offset="0.0958" style="stop-color:#F9F9F9;stop-opacity:0.0958"/>
		<stop  offset="0.2201" style="stop-color:#E9E9E9;stop-opacity:0.2201"/>
		<stop  offset="0.3602" style="stop-color:#CECECE;stop-opacity:0.3602"/>
		<stop  offset="0.5118" style="stop-color:#A9A9A9;stop-opacity:0.5118"/>
		<stop  offset="0.6728" style="stop-color:#797979;stop-opacity:0.6728"/>
		<stop  offset="0.8388" style="stop-color:#3F3F3F;stop-opacity:0.8388"/>
		<stop  offset="1" style="stop-color:#000000"/>
	</linearGradient>
	<path class="st5" d="M489.82,409.31c14.04-22.54,35.74-37.39,59.63-43.3c24.8-6.14,51.97-2.63,75.37,11.94
		c11.92,7.43,21.68,17,29.12,27.9l0.42-0.25l-21.32-36.92c-59.13-102.42-206.96-102.42-266.09,0l-38.59,66.85l0.4,0.23
		c-8.12,14.27-12.76,30.79-12.76,48.38c0,26.44,10.48,50.43,27.5,68.06c17.82,18.46,42.82,29.94,70.5,29.94
		c2.25,0,4.49-0.08,6.71-0.23c1.07-0.07,2.14-0.16,3.2-0.26c0.94-0.09,1.88-0.2,2.81-0.32c-1.76-0.74-3.43-1.65-4.98-2.69
		c-12.34-8.3-17.64-25.41-9.27-39.9l49.45-85.66l12.14-21.03L489.82,409.31z"/>
	<linearGradient id="SVGID_5_" gradientUnits="userSpaceOnUse" x1="539.0183" y1="371.5999" x2="410.9632" y2="499.6549">
		<stop  offset="5.327789e-07" style="stop-color:#FFFFFF;stop-opacity:0"/>
		<stop  offset="0.1128" style="stop-color:#FBFBFB;stop-opacity:0.1128"/>
		<stop  offset="0.2369" style="stop-color:#EDEDED;stop-opacity:0.2369"/>
		<stop  offset="0.3664" style="stop-color:#D7D7D7;stop-opacity:0.3664"/>
		<stop  offset="0.4996" style="stop-color:#B8B8B8;stop-opacity:0.4996"/>
		<stop  offset="0.6359" style="stop-color:#919191;stop-opacity:0.6359"/>
		<stop  offset="0.7744" style="stop-color:#606060;stop-opacity:0.7744"/>
		<stop  offset="0.9124" style="stop-color:#282828;stop-opacity:0.9124"/>
		<stop  offset="1" style="stop-color:#000000"/>
	</linearGradient>
	<path class="st6" d="M427.86,387.09c-2.35,3.1-4.56,6.39-6.58,9.89l-45.86,79.43l-4.38,7.58c-4.5,9.08-7.04,19.31-7.04,30.13
		c0,33.78,24.63,61.79,56.91,67.09c0,0,2.71,0.05,5.52-0.16c0,0-3.34-1.45-4.69-2.44c-12.34-8.3-17.64-25.41-9.27-39.9
		c3.22-5.58,6.44-11.16,9.67-16.74c6.66-11.54,13.33-23.08,19.99-34.62c7.48-12.96,14.99-25.9,22.34-38.94
		c1.69-2.99,3.4-5.96,5.21-8.89c3.45-5.6,6.92-11.12,10.62-16.55c3.68-5.4,7.52-10.73,11.45-16.31c10.48-14.91,23.78-27,40.39-34.6
		c4.91-2.25,10-4.1,15.21-5.51c0.17-0.05,0.35-0.09,0.52-0.14c0.53-0.14,1.07-0.28,1.6-0.41
		C511.16,341.23,457.34,348.27,427.86,387.09z"/>
	<linearGradient id="SVGID_6_" gradientUnits="userSpaceOnUse" x1="623.7768" y1="582.9987" x2="532.8294" y2="411.7145">
		<stop  offset="5.327789e-07" style="stop-color:#FFFFFF;stop-opacity:0"/>
		<stop  offset="1" style="stop-color:#000000"/>
	</linearGradient>
	<path class="st7" d="M650,521.89c-1.58-3.85-3.44-7.66-5.6-11.41l-42.52-73.65l-11.4-19.74c-4.54-5.47-10.01-10.33-16.38-14.3
		c-29.27-18.24-67.18-13.28-88.53,12.62c-0.2,0.25-1.41,1.99-1.61,2.24c-0.7,1.43-3.38,4.49-4.01,5.94c1.52-1.05,6.27-3.47,7.93-4.2
		c13.22-5.85,30.04-1.52,38.19,12.6l49.31,85.42l12.28,21.27c0.32,0.55,0.61,1.11,0.89,1.67c1.83,2.58,3.52,5.31,5.02,8.2
		c1.26,2.43,2.34,4.91,3.28,7.41c0.04,0.06,0.07,0.12,0.11,0.17c1.75,2.69,3.38,5.49,4.88,8.4c11.86,22.9,13.79,48.31,7.38,71.33
		C648.21,614.58,668,565.85,650,521.89z"/>
	<linearGradient id="SVGID_7_" gradientUnits="userSpaceOnUse" x1="343.4937" y1="593.2816" x2="601.124" y2="593.2816">
		<stop  offset="5.327789e-07" style="stop-color:#FFFFFF;stop-opacity:0"/>
		<stop  offset="0.0337" style="stop-color:#EDEDED;stop-opacity:0.0337"/>
		<stop  offset="0.1435" style="stop-color:#B6B6B6;stop-opacity:0.1435"/>
		<stop  offset="0.2572" style="stop-color:#858585;stop-opacity:0.2572"/>
		<stop  offset="0.3723" style="stop-color:#5C5C5C;stop-opacity:0.3723"/>
		<stop  offset="0.4891" style="stop-color:#3B3B3B;stop-opacity:0.4891"/>
		<stop  offset="0.6083" style="stop-color:#212121;stop-opacity:0.6083"/>
		<stop  offset="0.7307" style="stop-color:#0F0F0F;stop-opacity:0.7307"/>
		<stop  offset="0.8584" style="stop-color:#040404;stop-opacity:0.8584"/>
		<stop  offset="1" style="stop-color:#000000"/>
	</linearGradient>
	<path class="st8" d="M596.86,555.84c-0.02-0.06-0.04-0.12-0.07-0.18c-0.94-2.5-2.02-4.98-3.28-7.41c-1.5-2.89-3.19-5.62-5.02-8.2
		c1.28,2.56,2.16,5.19,2.65,7.83c0.58,3.08,0.64,6.17,0.26,9.18c-1.81,14.11-13.67,26.25-29.74,26.25h-96.43h-26.77
		c-3.46,0-6.73-0.57-9.74-1.6c-1.6-0.08-3.18-0.23-4.76-0.41c-1.06,0.11-2.13,0.19-3.2,0.26c-2.22,0.15-4.45,0.23-6.71,0.23
		c-27.68,0-52.68-11.48-70.5-29.94c-1.87,45.61,31.59,88.55,80.3,94.08c3.48,0.39,7.04,0.61,10.67,0.61h87.13h23.02
		c6.7-1.16,13.35-3.34,19.71-6.64C595.25,623.91,608.7,587.6,596.86,555.84z"/>
	<linearGradient id="SVGID_8_" gradientUnits="userSpaceOnUse" x1="609.0453" y1="629.6635" x2="586.3085" y2="328.0213">
		<stop  offset="5.327789e-07" style="stop-color:#FFFFFF;stop-opacity:0"/>
		<stop  offset="1" style="stop-color:#000000"/>
	</linearGradient>
	<path class="st9" d="M695.95,477.69l-41.59-72.04l-0.42,0.25c-7.44-10.9-17.2-20.47-29.12-27.9
		c-23.4-14.58-50.56-18.08-75.37-11.94c-23.89,5.91-45.59,20.76-59.63,43.3c-1.59,2.55-3.75,4.44-5.07,7.06
		c-0.15,0.3-0.93,1.02-1.07,1.33c-1.56,1.95-2.61,3.85-3.98,6c0.77-0.66,2.31-1.4,3.2-1.85c1.63-0.83,3.23-1.78,4.89-2.51
		c13.22-5.85,30.01-1.43,38.16,12.69l49.31,85.42l12.28,21.27c0.32,0.55,0.61,1.11,0.89,1.67c1.83,2.58,3.52,5.31,5.02,8.2
		c1.26,2.43,2.34,4.91,3.28,7.41c0.04,0.06,0.07,0.12,0.11,0.17c1.75,2.69,3.38,5.49,4.88,8.4c11.86,22.9,13.79,48.31,7.38,71.33
		c-7.05,25.3-24.18,47.72-49.35,60.75c-12.75,6.6-26.29,10.13-39.75,10.85v0.56h42.91C681.17,708.14,755.09,580.11,695.95,477.69z"
		/>
	<linearGradient id="SVGID_9_" gradientUnits="userSpaceOnUse" x1="283.2337" y1="571.8563" x2="612.71" y2="571.8563">
		<stop  offset="5.327789e-07" style="stop-color:#FFFFFF;stop-opacity:0"/>
		<stop  offset="1" style="stop-color:#000000"/>
	</linearGradient>
	<path class="st10" d="M593.45,548.65c-1.5-2.89-3.19-5.62-5.02-8.2c1.28,2.56,2.16,5.19,2.65,7.83c0.58,3.08,0.64,6.17,0.26,9.18
		c-1.81,14.11-13.67,26.25-29.74,26.25h-96.43H438.4c-3.46,0-6.73-0.57-9.74-1.6c-0.66-0.22-1.31-0.47-1.94-0.74
		c-0.93,0.12-1.87,0.23-2.81,0.32c-1.06,0.11-2.13,0.19-3.2,0.26c-2.22,0.15-4.45,0.23-6.71,0.23c-27.68,0-52.68-11.48-70.5-29.94
		c-17.02-17.63-27.5-41.62-27.5-68.06c0-17.6,4.64-34.11,12.76-48.38l-0.4-0.23l-24.32,42.12
		c-59.13,102.42,14.78,230.44,133.05,230.44H520v-0.56c13.47-0.72,27-4.25,39.75-10.85c25.17-13.03,42.3-35.45,49.35-60.75
		c6.41-23.02,4.48-48.43-7.38-71.33L593.45,548.65z"/>
</g>
</svg>
